<?xml version="1.0" standalone="no"?>
<!DOCTYPE svg PUBLIC "-//W3C//DTD SVG 20010904//EN"
 "http://www.w3.org/TR/2001/REC-SVG-20010904/DTD/svg10.dtd">
<svg version="1.0" xmlns="http://www.w3.org/2000/svg"
 width="640.000000pt" height="640.000000pt" viewBox="0 0 640.000000 640.000000"
 preserveAspectRatio="xMidYMid meet">
<metadata>
Created by potrace 1.14, written by Peter Selinger 2001-2017
</metadata>
<g transform="translate(0.000000,640.000000) scale(0.100000,-0.100000)"
fill="#000000" stroke="none">
<path d="M2857 5504 c-1 -1 -33 -5 -72 -9 -156 -15 -398 -74 -549 -134 -363
-145 -661 -370 -908 -686 -128 -163 -250 -392 -322 -606 -25 -74 -47 -145 -50
-159 -2 -14 -11 -57 -20 -96 -8 -38 -19 -92 -23 -120 -10 -60 -11 -543 -1
-599 16 -96 41 -205 60 -270 12 -38 22 -72 23 -75 4 -20 30 -94 47 -135 31
-76 137 -289 153 -311 8 -10 34 -48 56 -84 92 -145 289 -360 434 -475 28 -22
122 -112 210 -201 88 -89 198 -191 245 -226 301 -230 656 -377 1025 -425 80
-10 454 -10 530 0 124 17 288 55 380 87 33 12 67 23 75 25 18 4 155 64 220 95
101 50 249 143 345 217 115 89 277 248 346 338 13 17 26 32 30 35 11 9 136
194 161 240 14 25 34 61 45 80 54 97 161 380 177 470 2 14 7 32 10 40 3 8 8
32 11 54 3 21 7 41 9 45 4 6 13 83 22 186 4 50 4 326 0 380 -12 142 -58 348
-110 495 -15 41 -28 79 -29 85 -6 31 -152 304 -202 380 -115 173 -264 340
-405 455 -30 25 -80 72 -110 105 -96 104 -294 300 -334 330 -22 17 -51 40 -65
51 -111 91 -352 222 -531 289 -102 38 -343 100 -425 110 -98 11 -450 26 -458
19z"/>
</g>
</svg>
